<svg xmlns="http://www.w3.org/2000/svg" fill="none" stroke-linecap="square" stroke-miterlimit="10" viewBox="0 0 2090 755.906"><clipPath id="a"><path d="M0 0h2090v755.905H0V0z"/></clipPath><g clip-path="url(#a)"><path fill="none" d="M0 0h2090v755.905H0z"/><path fill="none" d="M27.743 244.995h2012.315v204.787H27.743z"/><path fill="#fff" d="M92.39 357.582V111.457h83.53q39.173 0 65.345 16.47 26.171 16.468 39.343 44.374 13.188 27.906 13.188 61.875 0 37.438-14.39 65.172-14.391 27.734-40.907 42.984t-62.578 15.25H92.39zm177.14-123.406q0-29.469-10.922-52.344-10.921-22.89-31.718-35.89t-50.97-13h-59.265v203.14h59.266q30.516 0 51.312-13.515 20.797-13.516 31.547-36.563 10.75-23.062 10.75-51.828zm138.302-122.719h20.453l102.266 246.125h-25.64l-31.907-76.953H362.426l-31.547 76.953h-26l102.953-246.125zm59.625 150.094L417.895 139.88l-50.266 121.672h99.828zm249.595-128.61h-87.703v224.641h-24.266v-224.64H517.38v-21.485h199.672v21.485zm89.434-21.484h20.453l102.265 246.125h-25.64l-31.907-76.953H761.08l-31.547 76.953h-26l102.954-246.125zm59.625 150.094L816.548 139.88l-50.266 121.672h99.829zm73.154-28.766q0-22.53 7.797-44.187 7.797-21.672 22.703-39.516 14.906-17.859 36.75-28.437t49.563-10.578q32.937 0 56.328 15.078 23.406 15.078 34.5 38.656l-19.063 11.781q-7.969-16.28-20.11-25.812-12.124-9.547-25.827-13.703-13.688-4.157-27.203-4.157-22.188 0-39.172 8.844-16.985 8.828-28.61 23.563-11.61 14.734-17.5 32.937-5.89 18.203-5.89 36.922 0 20.453 6.922 39.172 6.937 18.719 19.421 33.11 12.485 14.374 29.297 22.874 16.813 8.485 36.563 8.485 13.875 0 28.422-4.844 14.562-4.86 27.218-14.906 12.657-10.063 20.282-26l20.109 10.39q-7.625 18.375-23.578 31.203-15.938 12.829-35.531 19.422-19.578 6.578-38.297 6.578-25.313 0-46.469-10.921-21.14-10.922-36.562-29.11-15.422-18.203-23.75-40.906-8.313-22.703-8.313-45.938zm448.228-121.328v246.125h-23.922V242.49h-145.937v115.093h-24.266V111.457h24.266v109.547h145.937V111.457h23.922zm137.958 0h20.453l102.265 246.125h-25.64l-31.907-76.953h-110.578l-31.547 76.953h-26l102.954-246.125zm59.625 150.094l-49.563-121.672-50.266 121.672h99.829zm98.464 96.031V111.457h24.266v246.125h-24.266zM1793.777 156.176v201.406h-24.266V111.457h20.094l161.547 205.22V111.8h24.265v245.781h-22.531l-159.11-201.406z"/><path fill="none" d="M5.547 409.698H2064.1v204.788H5.547z"/><path fill="#fff" d="M85.99 619.812V407.765h139.172v18.516H106.897v77.953h99.75v17.312h-99.75v98.266H85.99zm257.15 1.5q-22.407 0-40.626-8.953-18.218-8.969-31.359-24.344-13.14-15.39-20.312-34.656-7.157-19.266-7.157-39.563 0-21.218 7.453-40.468 7.47-19.266 21.063-34.344 13.594-15.094 31.812-23.906 18.22-8.813 39.422-8.813 22.39 0 40.61 9.266 18.218 9.265 31.203 24.797 13 15.515 20.172 34.64 7.172 19.11 7.172 39.125 0 21.203-7.47 40.47-7.468 19.25-20.905 34.343-13.438 15.078-31.657 23.75-18.218 8.656-39.422 8.656zm-78.547-107.516q0 17.313 5.671 33.297 5.672 15.97 16.125 28.375 10.454 12.391 24.938 19.703 14.484 7.313 31.812 7.313 18.22 0 32.704-7.61 14.484-7.609 24.78-20.296 10.313-12.703 15.688-28.532 5.375-15.828 5.375-32.25 0-17.328-5.687-33.156-5.672-15.828-16.281-28.375-10.594-12.547-24.938-19.703-14.328-7.172-31.64-7.172-17.922 0-32.407 7.469-14.484 7.453-24.797 20.156-10.297 12.688-15.828 28.516-5.515 15.828-5.515 32.265zM568.32 621.312q-25.078 0-42.406-8.953-17.329-8.969-27.485-24.047-10.14-15.094-14.781-34.203-4.625-19.11-4.625-39.422V407.765h20.61v106.922q0 16.422 3.421 32.25 3.438 15.828 11.203 28.375 7.766 12.547 20.907 19.86 13.14 7.312 32.859 7.312 20.312 0 33.594-7.61 13.297-7.609 20.906-20.156 7.625-12.547 10.906-28.218 3.281-15.688 3.281-31.813V407.765h20.907v106.922q0 21.203-4.782 40.625-4.765 19.406-15.375 34.047-10.609 14.625-27.64 23.297-17.016 8.656-41.5 8.656zM728.4 446.296v173.516h-20.906V407.765h17.328l139.172 176.813V408.062H884.9v211.75h-19.422L728.4 446.296zm209.656 173.516V407.765h71.985q33.75 0 56.297 14.188 22.547 14.187 33.89 38.234 11.344 24.031 11.344 53.297 0 32.266-12.39 56.156-12.391 23.89-35.25 37.031-22.844 13.141-53.891 13.141h-71.985zm152.61-106.328q0-25.375-9.406-45.078-9.407-19.719-27.329-30.922-17.906-11.203-43.89-11.203h-51.078v175.015h51.078q26.281 0 44.187-11.64Q1072.15 578 1081.4 558.14q9.266-19.86 9.266-44.656zm119.166-105.719h17.625l88.11 212.047h-22.11l-27.469-66.297h-95.281l-27.172 66.297h-22.406l88.703-212.047zm51.375 129.313l-42.703-104.828-43.313 104.828h86.016zm215.035-110.797h-75.562v193.531h-20.906V426.281h-75.563v-18.516h172.031v18.516zm31.65 193.531V407.765h20.906v212.047h-20.907zm159.488 1.5q-22.406 0-40.625-8.953-18.219-8.969-31.36-24.344-13.14-15.39-20.312-34.656-7.156-19.266-7.156-39.563 0-21.218 7.453-40.468 7.469-19.266 21.063-34.344 13.593-15.094 31.812-23.906 18.219-8.813 39.422-8.813 22.39 0 40.61 9.266 18.218 9.265 31.203 24.797 13 15.515 20.171 34.64 7.172 19.11 7.172 39.125 0 21.203-7.468 40.47-7.47 19.25-20.907 34.343-13.437 15.078-31.656 23.75-18.219 8.656-39.422 8.656zm-78.547-107.516q0 17.313 5.672 33.297 5.672 15.97 16.125 28.375 10.453 12.391 24.938 19.703 14.484 7.313 31.812 7.313 18.219 0 32.703-7.61 14.485-7.609 24.782-20.296 10.312-12.703 15.687-28.532 5.375-15.828 5.375-32.25 0-17.328-5.687-33.156-5.672-15.828-16.282-28.375-10.593-12.547-24.937-19.703-14.328-7.172-31.64-7.172-17.923 0-32.407 7.469-14.484 7.453-24.797 20.156-10.297 12.688-15.828 28.516-5.516 15.828-5.516 32.265zm238.322-67.5v173.516h-20.906V407.765h17.328l139.172 176.813V408.062h20.906v211.75h-19.421l-137.079-173.516z"/></g></svg>