<svg xmlns="http://www.w3.org/2000/svg" xmlns:xlink="http://www.w3.org/1999/xlink" viewBox="0 0 33.86 50.02"><defs><style>.cls-1{fill:url(#linear-gradient);}.cls-2{fill:#0652dd;}</style><linearGradient id="linear-gradient" x1="42.74" y1="40.28" x2="22.03" y2="19.57" gradientUnits="userSpaceOnUse"><stop offset="0.68" stop-color="#1b1464"/><stop offset="0.74" stop-color="#18125b"/><stop offset="0.83" stop-color="#120d41"/><stop offset="0.94" stop-color="#060518"/><stop offset="1"/></linearGradient></defs><title>Asset 5</title><g id="Layer_2" data-name="Layer 2"><g id="Layer_1-2" data-name="Layer 1"><path class="cls-1" d="M33.86,11.31V48.54a1.48,1.48,0,0,1-2.61,1L15.6,30.87a1.48,1.48,0,0,1,0-1.9L31.25,10.36A1.48,1.48,0,0,1,33.86,11.31Z"/><path class="cls-2" d="M33.23,9.85a1.37,1.37,0,0,1,.31,2L17.28,31.23h0l-.07.07L2.41,48.9A1.36,1.36,0,0,1,0,48V11.44a1.38,1.38,0,0,1,.63-1.16L16.48.21a1.37,1.37,0,0,1,1.46,0Z"/></g></g></svg>